<svg width="24" height="24" viewBox="0 0 24 24" fill="none" xmlns="http://www.w3.org/2000/svg">
<path d="M12 12L14.6515 9.3485C14.038 8.73506 13.2308 8.35332 12.3673 8.26833C11.5039 8.18335 10.6378 8.40037 9.91642 8.88242C9.19508 9.36447 8.6632 10.0817 8.4114 10.912C8.15961 11.7422 8.20349 12.6341 8.53555 13.4356C8.86762 14.2371 9.46733 14.8987 10.2325 15.3076C10.9977 15.7166 11.881 15.8475 12.7319 15.6782C13.5828 15.5089 14.3486 15.0497 14.899 14.379C15.4493 13.7084 15.7501 12.8676 15.75 12" stroke="#747475" stroke-width="1.5" stroke-linecap="round" stroke-linejoin="round"/>
<path d="M12 21.75C16.5215 20.1915 19.7445 16.5685 20.25 11.9555C20.3903 9.95299 20.3784 7.94272 20.2145 5.942C20.1928 5.62664 20.0544 5.33068 19.8262 5.11193C19.598 4.89318 19.2965 4.76734 18.9805 4.759C16.935 4.696 14.5575 4.355 12.7205 2.5455C12.5285 2.35628 12.2698 2.2502 12.0002 2.2502C11.7307 2.2502 11.472 2.35628 11.28 2.5455C9.44249 4.355 7.06499 4.696 5.01999 4.759C4.704 4.76734 4.40246 4.89318 4.17428 5.11193C3.94609 5.33068 3.80765 5.62664 3.78599 5.942C3.6219 7.94271 3.60986 9.95298 3.74999 11.9555C4.25549 16.5685 7.47849 20.1915 12 21.75Z" stroke="#747475" stroke-linecap="round" stroke-linejoin="round"/>
</svg>
