<svg width="39" height="26" viewBox="0 0 39 26" fill="none" xmlns="http://www.w3.org/2000/svg">
<rect x="0.5" y="-0.000320435" width="38.1875" height="26" rx="5" fill="#7D6F93"/>
<rect x="24.9312" y="3.59968" width="18.5969" height="10.8781" rx="4.65" transform="rotate(90 24.9312 3.59968)" fill="#7D6F93" stroke="#A4A3A6" stroke-width="0.7"/>
<path d="M0.5 16.4528L10.5411 16.4528C12.2754 16.4528 13.7232 15.1297 13.8791 13.4024V13.4024C13.8972 13.202 13.8972 13.0004 13.8791 12.8001V12.8001C13.7232 11.0728 12.2754 9.74968 10.5411 9.74968L0.500001 9.74968" stroke="#A4A3A6" stroke-width="0.7"/>
<path d="M38.6875 9.74968L28.4671 9.74968C26.7996 9.74968 25.3688 10.972 25.08 12.6143V12.6143C25.0122 13.0001 25.0134 13.4001 25.0853 13.7851V13.7851C25.3742 15.3317 26.7242 16.4528 28.2974 16.4528L38.6875 16.4528" stroke="#A4A3A6" stroke-width="0.7"/>
<line x1="19.5375" y1="-0.000320435" x2="19.5375" y2="3.65593" stroke="#A4A3A6" stroke-width="0.7"/>
<line x1="19.5375" y1="22.3434" x2="19.5375" y2="25.9997" stroke="#A4A3A6" stroke-width="0.7"/>
</svg>
