<svg width="184" height="20" viewBox="0 0 184 20" fill="none" xmlns="http://www.w3.org/2000/svg">
<path d="M66.3047 11.9417C66.3047 13.0167 73.874 13.8833 83.2784 13.8833H102.469C110.65 13.8833 117.302 13.125 117.302 12.1917C117.302 11.175 113.25 10.8167 107.21 10.5833L76.3972 9.41667C70.3569 9.18333 66.3047 8.825 66.3047 7.80833C66.3047 6.875 72.9565 6.11667 81.1376 6.11667H100.329C109.733 6.11667 117.302 6.98333 117.302 8.05833M91.75 5V15" stroke="#59595A" stroke-width="0.8" stroke-linecap="round" stroke-linejoin="round"/>
<path d="M91.75 18.3333C133.978 18.3333 168.208 14.6025 168.208 9.99999C168.208 5.39749 133.978 1.66666 91.75 1.66666C49.5221 1.66666 15.2917 5.39749 15.2917 9.99999C15.2917 14.6025 49.5221 18.3333 91.75 18.3333Z" stroke="#59595A" stroke-width="0.8" stroke-linecap="round" stroke-linejoin="round"/>
</svg>
