<svg width="40" height="40" viewBox="0 0 40 40" fill="none" xmlns="http://www.w3.org/2000/svg">
<circle cx="20" cy="20" r="19.75" stroke="#BFBFBF" stroke-width="0.5"/>
<path d="M20.0167 12.425C17.2583 12.425 15.0167 14.6667 15.0167 17.425V19.8333C15.0167 20.3417 14.8 21.1167 14.5417 21.55L13.5833 23.1417C12.9917 24.125 13.4 25.2167 14.4833 25.5833C18.075 26.7833 21.95 26.7833 25.5417 25.5833C26.55 25.25 26.9917 24.0583 26.4417 23.1417L25.4833 21.55C25.2333 21.1167 25.0167 20.3417 25.0167 19.8333V17.425C25.0167 14.675 22.7667 12.425 20.0167 12.425Z" stroke="#A0A0A0" stroke-width="1.5" stroke-miterlimit="10" stroke-linecap="round"/>
<path d="M21.5583 12.6667C20.5506 12.3797 19.4827 12.3797 18.475 12.6667C18.7166 12.05 19.3166 11.6167 20.0166 11.6167C20.7166 11.6167 21.3166 12.05 21.5583 12.6667Z" stroke="#A0A0A0" stroke-width="1.5" stroke-miterlimit="10" stroke-linecap="round" stroke-linejoin="round"/>
<path d="M22.5167 25.8833C22.5167 27.2583 21.3917 28.3833 20.0167 28.3833C19.3333 28.3833 18.7 28.1 18.25 27.65C17.7818 27.1811 17.5182 26.546 17.5167 25.8833" stroke="#A0A0A0" stroke-width="1.5" stroke-miterlimit="10"/>
<circle cx="32" cy="5" r="5" fill="#5100D7"/>
</svg>
