<svg width="28" height="28" viewBox="0 0 28 28" fill="none" xmlns="http://www.w3.org/2000/svg">
<rect width="28" height="28" rx="2" fill="#EFEBFD"/>
<circle cx="14" cy="14" r="8" fill="#4A00D5"/>
<path d="M12.25 13.5C12.0028 13.5 11.7611 13.4267 11.5555 13.2893C11.35 13.152 11.1898 12.9568 11.0952 12.7284C11.0005 12.4999 10.9758 12.2486 11.024 12.0061C11.0723 11.7637 11.1913 11.5409 11.3661 11.3661C11.5409 11.1913 11.7637 11.0723 12.0061 11.024C12.2486 10.9758 12.4999 11.0005 12.7284 11.0952C12.9568 11.1898 13.152 11.35 13.2893 11.5555C13.4267 11.7611 13.5 12.0028 13.5 12.25C13.4997 12.5814 13.3679 12.8992 13.1335 13.1335C12.8992 13.3679 12.5814 13.4997 12.25 13.5ZM11 16.6465L16.6463 11L17 11.3538L11.3535 17L11 16.6465ZM15.75 17C15.5028 17 15.2611 16.9267 15.0555 16.7893C14.85 16.652 14.6898 16.4568 14.5952 16.2284C14.5005 15.9999 14.4758 15.7486 14.524 15.5061C14.5723 15.2637 14.6913 15.0409 14.8661 14.8661C15.0409 14.6913 15.2637 14.5723 15.5061 14.524C15.7486 14.4758 15.9999 14.5005 16.2284 14.5952C16.4568 14.6898 16.652 14.85 16.7893 15.0555C16.9267 15.2611 17 15.5028 17 15.75C16.9997 16.0814 16.8679 16.3992 16.6335 16.6335C16.3992 16.8679 16.0814 16.9997 15.75 17Z" fill="white"/>
</svg>
