<svg width="184" height="20" viewBox="0 0 184 20" fill="none" xmlns="http://www.w3.org/2000/svg">
<path d="M160.562 4.0625H22.9375C20.6562 4.0625 18.4684 4.16127 16.8553 4.33709C15.2422 4.5129 14.3359 4.75136 14.3359 5V15C14.3359 15.2486 15.2422 15.4871 16.8553 15.6629C18.4684 15.8387 20.6562 15.9375 22.9375 15.9375H160.562C162.844 15.9375 165.032 15.8387 166.645 15.6629C168.258 15.4871 169.164 15.2486 169.164 15V5C169.164 4.75136 168.258 4.5129 166.645 4.33709C165.032 4.16127 162.844 4.0625 160.562 4.0625ZM22.9375 4.6875H160.562C161.323 4.6875 162.052 4.72042 162.59 4.77903C163.128 4.83763 163.43 4.91712 163.43 5V7.1875H20.0703V5C20.0703 4.91712 20.3724 4.83763 20.9101 4.77903C21.4478 4.72042 22.1771 4.6875 22.9375 4.6875ZM160.562 15.3125H22.9375C22.1771 15.3125 21.4478 15.2796 20.9101 15.221C20.3724 15.1624 20.0703 15.0829 20.0703 15V7.8125H163.43V15C163.43 15.0829 163.128 15.1624 162.59 15.221C162.052 15.2796 161.323 15.3125 160.562 15.3125ZM146.227 13.125C146.227 13.2079 145.924 13.2874 145.387 13.346C144.849 13.4046 144.12 13.4375 143.359 13.4375H120.422C119.661 13.4375 118.932 13.4046 118.394 13.346C117.857 13.2874 117.555 13.2079 117.555 13.125C117.555 13.0421 117.857 12.9626 118.394 12.904C118.932 12.8454 119.661 12.8125 120.422 12.8125H143.359C144.12 12.8125 144.849 12.8454 145.387 12.904C145.924 12.9626 146.227 13.0421 146.227 13.125ZM100.352 13.125C100.352 13.2079 100.049 13.2874 99.5118 13.346C98.9741 13.4046 98.2448 13.4375 97.4844 13.4375H86.0156C85.2552 13.4375 84.5259 13.4046 83.9882 13.346C83.4505 13.2874 83.1484 13.2079 83.1484 13.125C83.1484 13.0421 83.4505 12.9626 83.9882 12.904C84.5259 12.8454 85.2552 12.8125 86.0156 12.8125H97.4844C98.2448 12.8125 98.9741 12.8454 99.5118 12.904C100.049 12.9626 100.352 13.0421 100.352 13.125Z" fill="#59595A"/>
</svg>
